<svg xmlns="http://www.w3.org/2000/svg" width="240" height="210" viewBox="0 0 240 210"><path fill="#FDDFC6" d="M154.841 81.188a50.694 50.694 0 0 0 15.806 11.104l-10.037-.643-.296 12.416 19.246.59.879-9.129a50.6 50.6 0 0 0 13.47 1.133l-3.315 34.436a3.854 3.854 0 0 1-3.838 3.488H70.252L59.27 153.504a2.33 2.33 0 0 0 2.016 3.504h121.592c1.03 0 2.003.453 2.663 1.244l6.564 7.863a6.452 6.452 0 0 1-.82 9.082 6.45 6.45 0 0 1-9.081-.822l-2.176-2.605a3.461 3.461 0 0 0-2.663-1.252H60.792a15.824 15.824 0 0 1-6.99-1.877c-7.723-4.152-10.623-13.771-6.474-21.494l7.481-12.887-19.193-99.789A16.64 16.64 0 0 0 23.782 21.6l-12.375-3.479a6.761 6.761 0 0 1-4.498-8.436 6.759 6.759 0 0 1 8.434-4.498l21.987 6.172a13.522 13.522 0 0 1 9.619 10.463l1.275 6.605L141.06 39.41a50.839 50.839 0 0 0 .069 13.621l-17.288-2.045.623 12.162 19.917 1.953a50.586 50.586 0 0 0 3.107 6.338L124.77 69.22l.729 14.172 29.246 1.865.096-4.069zm-67.41-21.655l30.985 3.033-.631-12.287-31.992-3.789 1.638 13.043zm-33.868-3.314l27.736 2.717-1.654-13.168L50.9 42.369l2.663 13.85zm4.402 22.867l26.072 1.664-1.966-15.703-27.32-2.67 3.214 16.709zm32.172 2.053l29.323 1.871-.735-14.375-30.529-2.988 1.941 15.492zm36.364 21.894l27.805.848.299-12.615-28.799-1.836.695 13.603zM92.755 102l27.722.848-.708-13.801-28.867-1.84L92.755 102zm-30.564-.932l24.487.748-1.883-14.998-25.661-1.638 3.057 15.888zm115.785 19.995l1.001-10.412-18.807-.576-.255 10.988h18.061zm-24.073 0l.264-11.172-27.354-.836.617 12.01h26.474v-.002zm-32.497 0l-.62-12.191-27.272-.836 1.633 13.029h26.26v-.002zm-32.315 0l-1.659-13.211-24.079-.732 2.687 13.943h23.051zm5.722 68.64c0 9.018-7.302 16.318-16.314 16.318-9.014 0-16.316-7.301-16.316-16.318 0-9.012 7.302-16.32 16.316-16.32 9.012 0 16.314 7.308 16.314 16.32zm-9.704 0a6.606 6.606 0 0 0-6.61-6.607 6.605 6.605 0 0 0-6.612 6.607 6.61 6.61 0 1 0 13.222 0zm91.249 0c0 9.018-7.305 16.318-16.316 16.318s-16.319-7.301-16.319-16.318c0-9.012 7.308-16.32 16.319-16.32s16.316 7.308 16.316 16.32zm-9.701 0a6.607 6.607 0 0 0-6.615-6.607 6.61 6.61 0 0 0 0 13.218 6.611 6.611 0 0 0 6.615-6.611zm66.729-143.73c0 23.195-18.804 41.998-41.999 41.998-23.193 0-41.994-18.807-41.994-41.998 0-23.193 18.801-41.994 41.994-41.994 23.195 0 41.999 18.798 41.999 41.994zM191.384 18.09H179.53v38.732h-7.302l19.155 17.117 19.161-17.117h-7.303V18.09h-11.857z"/></svg>