<svg xmlns="http://www.w3.org/2000/svg" width="850.394" height="850.393" viewBox="0 0 850.394 850.393"><g fill="#D30741"><path d="M552.755 467.715a2.842 2.842 0 0 0-2.835 2.835v68.032c0 1.559-.902 1.932-2.004.83l-69.692-69.692c-1.103-1.103-3.28-2.005-4.839-2.005h-5.67a2.842 2.842 0 0 0-2.834 2.835v96.378a2.842 2.842 0 0 0 2.834 2.835h11.339a2.842 2.842 0 0 0 2.835-2.835v-68.031c0-1.56.901-1.934 2.004-.83l69.692 69.691c1.103 1.104 3.28 2.005 4.839 2.005h5.67a2.842 2.842 0 0 0 2.834-2.835V470.55a2.842 2.842 0 0 0-2.834-2.835h-11.339zM827.716 467.715h-96.379a2.842 2.842 0 0 0-2.834 2.834v11.34a2.842 2.842 0 0 0 2.834 2.834h39.686v82.205a2.842 2.842 0 0 0 2.834 2.835h11.34a2.842 2.842 0 0 0 2.834-2.835v-82.205h39.686a2.842 2.842 0 0 0 2.835-2.834v-11.34a2.844 2.844 0 0 0-2.836-2.834zM257.5 536.916c11.939-5.617 20.294-18.316 20.294-33.059 0-19.929-15.26-36.143-34.016-36.143h-65.196a2.842 2.842 0 0 0-2.835 2.835v96.378a2.842 2.842 0 0 0 2.835 2.835h11.338a2.842 2.842 0 0 0 2.835-2.835v-26.93h47.5l12.1 27.176c.634 1.424 2.429 2.589 3.987 2.589h12.948c1.56 0 2.316-1.165 1.682-2.589L257.5 536.916zm-64.745-52.192h51.023v-.001c9.378 0 17.008 8.584 17.008 19.135s-7.63 19.133-17.008 19.133h-51.023v-38.267zM429.713 567.172l-43.051-96.866c-.633-1.425-2.427-2.591-3.986-2.591H360c-1.559 0-3.353 1.166-3.986 2.591l-43.052 96.866c-.633 1.426.125 2.591 1.684 2.591h12.756c1.56 0 3.342-1.171 3.962-2.601l6.243-14.408h67.464l6.243 14.408c.62 1.43 2.403 2.601 3.962 2.601h12.756c1.557 0 2.315-1.165 1.681-2.591zm-84.737-31.426l22.11-51.023h8.504l22.109 51.023h-52.723zM717.43 567.172l-43.051-96.866c-.634-1.425-2.427-2.591-3.986-2.591h-22.677c-1.56 0-3.353 1.166-3.986 2.591l-43.052 96.866c-.633 1.426.124 2.591 1.684 2.591h12.756c1.559 0 3.342-1.171 3.962-2.601l6.243-14.408h67.464l6.243 14.408c.62 1.43 2.402 2.601 3.962 2.601h12.755c1.559 0 2.316-1.165 1.683-2.591zm-84.737-31.426l22.109-51.023h8.504l22.11 51.023h-52.723zM124.724 510.234H79.37a2.842 2.842 0 0 0-2.835 2.835v11.339a2.842 2.842 0 0 0 2.835 2.835h30.916c-.813 8.31-3.547 14.462-8.583 19.498-6.037 6.037-14.034 8.849-25.168 8.849-11.502 0-22.032-3.935-28.892-10.793-6.96-6.961-10.793-16.215-10.793-26.058s3.833-19.097 10.793-26.058c6.859-6.859 17.39-10.793 28.892-10.793 18.233 0 27.573 7 33.672 13.1a2.842 2.842 0 0 0 4.009 0l8.018-8.018a2.842 2.842 0 0 0 0-4.009c-12.167-12.167-27.115-18.081-45.698-18.081-15.979 0-30.893 5.75-40.918 15.775-10.172 10.172-15.774 23.697-15.774 38.083s5.603 27.911 15.774 38.083c10.024 10.025 24.938 15.775 40.918 15.775 15.722 0 27.889-4.523 37.194-13.83 9.436-9.436 13.829-21.254 13.829-37.193v-8.505a2.844 2.844 0 0 0-2.835-2.834z"/></g><path fill="#F08275" d="M232.418 706.977c5.464-2.731 9.36-6.116 12.42-11.399 2.887-4.983 4.091-11.069 4.661-16.762.326-3.258.273-5.604-2.153-8.029-1.609-1.608-5.228-2.377-7.475-2.527-3.388-.226-6.074-.091-9.384.675-3.053.707-4.7 1.92-7.281 3.482-3.896 2.36-6.405 5.846-8.278 9.879-1.809 3.894-4.065 8.928-2.759 13.283.283.943.196 1.919.45 2.849.325 1.19 1.205 2.41 1.758 3.517 1.231 2.463 2.207 3.302 4.69 4.471 4.241 1.994 8.878 1.493 13.351.561zm1.98 40.648c2.188-1.122 3.566-2.305 5.04-4.35.712-.988 1.269-2.048 2.013-3.022.603-.789.395-1.802.833-2.666.58-1.142 1.476-2.384 1.833-3.611.175-.601.377-3.039-.36-3.449-1.519-.845-5.513 1.743-6.576 2.63-1.787 1.488-3.998 2.721-5.879 4.131-2.45 1.838-3.508 2.761-4.984 5.428-.52.938-.837 1.838-.74 2.96.138 1.583.551 1.954 1.89 2.476 2.362.916 4.711.583 6.93-.527zm74.519-38.849c1.342-.559 2.67-1.132 3.993-1.733 1.045-.475 2.365-2.215 3.287-2.983 1.974-1.645 3.765-4.633 4.847-6.977 1.401-3.037 1.983-6.36 2.802-9.599.607-2.405 1.631-5.378 1.631-7.847 0-2.791 1.091-6.549-1.319-8.559-1.852-1.544-5.512-2.585-7.929-2.652-6.392-.178-11.418.29-16.673 4.234-1.823 1.368-3.563 2.866-5.037 4.617-1.575 1.873-2.622 4.673-3.727 6.883-1.035 2.069-1.58 4.127-2.112 6.344-.236.985-.979 2.568-.795 3.567.253 1.368.372 2.628.436 4.021.109 2.353.62 4.27 1.607 6.409 1.116 2.416 2.687 3.585 4.917 4.937 4.127 2.502 9.839.75 14.072-.662zm169.378-31.198c-.234-2.535.269-5.895-1.53-8.059-2.155-2.593-4.623-3.16-7.906-3.581-2.772-.355-5.558.806-8.154 1.526-2.233.619-5.984 2.206-7.362 4.12-1.81 2.515-4.008 4.552-5.552 7.286-1.428 2.528-2.13 5.039-3.225 7.674-1.12 2.696-1.496 5.357-1.355 8.31.154 3.22-.197 6 1.177 8.978.428.926.339 1.832 1.085 2.563.985.966 1.915 2.114 3.089 2.849 2.18 1.362 5.059 1.167 7.544 1.051 4.241-.196 9.133-3.871 12.026-6.817 1.697-1.728 2.694-3.928 4.222-5.801a32.366 32.366 0 0 0 3.87-5.999c.996-1.994 2.43-3.675 2.43-6.039.001-2.724.136-5.382-.359-8.061zm11.339-10.349c1.55-2.583 2.266-5.266 3.7-7.855 1.408-2.543 2.588-5.309 3.49-8.063.884-2.702 2.139-5.304 2.89-8.081.16-.591.103-1.407.44-1.922.333-.51.887-1.09 1.04-1.684.391-1.52.501-3.003.807-4.528.793-3.961 3.278-14.763-4.147-12.699-5.971 1.66-7.734 8.709-9.41 14.016-.398 1.261-.415 2.47-.296 3.762.069.746-.243 1.352-.487 2.062-.261.76-.022 1.365.136 2.156.188.938-.683 2.884-.683 4.038 0 1.411-.285 3.015-.167 4.404.053.615.305 1.483.126 2.078-.164.545-.536 1.251-.487 1.822.11 1.283.527 2.717.527 3.985 0 1.416-.165 2.919.093 4.314.271 1.47-.05 3.258.627 4.594 1.378-.655 1.363-.94 1.801-2.399zm48.78 18.899c6.161 1.186 11.382 1.487 17.44-.374 2.925-.898 4.924-3.332 6.645-5.687 1.411-1.933 1.442-6.157.214-8.189-3.475-5.748-10.997-4.259-16.42-2.969-4.801 1.143-10.322 7.059-11.699 11.652-.962 3.209 1.106 4.697 3.82 5.567zm137.696 4.949c-1.205 2.725-2.329 5.232-3.86 7.783-1.537 2.562-3.431 4.68-5.14 7.066-.827 1.155-2.005 1.918-2.88 3-.937 1.159-1.329 2.339-2.63 3.226-2.349 1.601-4.409 3.601-7.04 4.782-5.153 2.314-12.14 3.502-17.329.691-2.073-1.122-5.233-4.055-5.447-6.544-.128-1.495-.789-2.321-1.173-3.711-.438-1.586-.171-2.977-.31-4.594-.5-5.84.78-11.613 1.241-17.386.419-5.255 3.519-11.573-1.241-15.538-1.836-1.53-6.289-1.498-8.523-.82-2.745.833-5.563 1.609-7.831 3.498-2.181 1.817-4.682 3.577-6.329 5.93-.956 1.365-1.679 2.691-2.425 4.185-.61 1.221-1.743 2.088-2.206 3.342-1.705 4.617-2.307 9.2-3.195 14.015-.387 2.095-.18 4.72-.18 6.881 0 1.215.327 2.35.36 3.544.035 1.259-.439 2.507-.54 3.75-.196 2.437-.068 4.75-3.039 5.132-2.546.327-4.629.663-6.395-1.344-1.773-2.016-.938-4.353-1.419-6.754-.474-2.368.81-4.775.534-7.169-7.151 8.196-18.076 15.297-29.268 15.711-6.195.229-12.304.697-18.38-.823-5.498-1.375-11.032-4.67-14.932-8.803-2.438-2.584-3.036-6.229-4.35-9.375-.996 2.699-2.613 4.844-4.649 6.882-2.063 2.064-3.756 4.558-6.111 6.324-3.896 2.922-11.303 6.446-16.334 5.136-3.351-.873-5.328-1.61-7.796-4.018-1.139-1.111-2.173-1.901-3.146-3.178-.792-1.038-.946-2.668-1.354-3.872-.448-1.326-1.707-7.573-3.984-4.362-1.794 2.531-3.909 4.648-5.769 7.085-1.264 1.655-3.28 2.171-4.729 3.55-1.474 1.402-3.55 2.292-5.423 3.072-4.511 1.879-8.15 2.183-12.995 1.977-8.607-.368-15.634-8.351-17.113-16.361-3.551 4.861-7.393 9.933-12.738 12.902-5.61 3.117-11.487 3.533-17.754 3.815-5.767.26-11.306-2.485-15.433-6.353-1.029-.965-1.265-2.276-1.89-3.525-.766-1.53-1.688-2.44-2.032-4.162-.274-1.371.047-2.452-.383-3.886-.497-1.656-.375-3.233-.375-4.967 0-2.647 1.169-5.88 1.84-8.489.676-2.629 1.979-5.516 3.3-7.899.63-1.138.892-2.685 1.453-3.9.6-1.299 1.755-2.322 2.407-3.594.186-.361 1.333-3.194.629-3.488-1.529-.637-2.988-1.27-4.589-1.687-1.009-.263-3.168-.825-4.069-.143-1.543 1.169-1.739 1.536-2.484 3.234-1.302 2.969-2.977 5.935-3.669 9.11-.259 1.188-1.285 2.557-1.74 3.742-.613 1.597-1.523 2.599-2.258 4.079-.616 1.242-.7 2.453-1.62 3.601-1.022 1.275-1.365 2.599-2.376 3.922-3.386 4.435-5.756 9.72-9.686 13.777-1.855 1.915-3.791 4.364-6.21 5.596-2.387 1.216-5.47 3.279-8.11 3.72-2.844.475-6.079 1.272-8.899.284-2.496-.875-5.053-2.669-6.592-4.807-.986-1.37-1.3-2.483-1.778-4.118-.248-.85-.646-3.771-2.07-3.825-.976-.037-2.445 2.237-2.97 2.925-.894 1.17-2.114 1.949-3.06 3.075-1.26 1.501-3.63 2.479-5.276 3.578-1.892 1.261-3.958 1.985-6.075 2.787-3.731 1.413-8.752 1.505-12.658.962-4.259-.591-8.683-2.111-11.899-5.077-1.738-1.603-2.988-3.098-4.14-5.1-1.075-1.87-1.25-3.635-2.172-5.596-1.816 2.32-3.548 5.024-5.689 7.007-2.104 1.948-4.007 4.103-5.853 6.3-1.807 2.15-4.704 3.884-7.016 5.443-2.43 1.64-2.922 4.333-3.71 6.962-.758 2.527-.85 5.143-1.809 7.591-1.207 3.079-2.375 5.523-4.1 8.278-1.692 2.703-3.159 5.232-5.795 7.063-2.675 1.857-4.929 3.26-8.09 4.103-4.963 1.324-12.414 1.938-16.704-1.637-1.98-1.65-4.799-4.318-4.517-7.15.281-2.812.524-5.636 2.235-8.068 1.591-2.263 3.36-5.359 5.868-6.785 2.645-1.503 5.212-3.109 7.853-4.612 2.71-1.543 5.576-2.804 8.38-4.178 2.423-1.188 5.437-1.974 6.778-4.531 1.462-2.784 1.479-5.441 1.848-8.513.167-1.394.353-2.469-.667-3.486-.54-.539-3.427 2.199-3.828 2.516-4.443 3.518-9.612 6.026-15.313 6.502-3.156.263-6.186.617-9.309.016-2.789-.536-5.519-1.925-7.837-3.507-4.709-3.213-7.792-8.328-9.032-13.917-1.215-5.475.093-11.545 1.982-16.697 1.154-3.146 1.971-6.044 4.228-8.552 2.047-2.273 3.591-4.668 6.003-6.677 4.803-4.003 10.081-5.748 16.15-6.76 6.386-1.064 12.035-.293 18.227 1.195 5.135 1.234 12.768 3.008 13.348 9.292.301 3.263-.555 7.01-.813 10.273-.218 2.754-.803 5.258-.681 8.009.121 2.722-1.365 5.192-1.116 7.891.223 2.406-.247 5.604-.7 7.998-.272 1.438-.83 3.055-.83 4.521 0 1.488-.288 3.536 1.59 3.014 1.218-.338 2.155-1.818 2.993-2.75 1.055-1.171 2.188-2.103 3.058-3.43 1.591-2.43 3.716-4.736 5.45-7.109.883-1.21 1.521-2.037 2.209-3.368.727-1.407 1.894-2.3 2.7-3.6.809-1.304 1.126-2.263 2.188-3.47.574-.652.524-2.87.783-3.805.701-2.53 1.617-5.19 3.109-7.366 3.266-4.763 6.574-10.085 11.846-12.908 5.465-2.927 10.683-5.041 16.994-5 2.953.019 6.165.152 8.979 1.055 2.143.687 6.132 2.702 8 1.146.729-.607 2.13-2.479 2.996-2.517 1.724-.075 3.103-.126 4.774.241 1.672.366 2.169.64 2.61 2.475.342 1.424.21 3.181.347 4.655.252 2.739-.91 5.614-1.083 8.34-.203 3.217-.486 6.254-1.05 9.424-.503 2.832.026 5.777-.358 8.664-.173 1.301-.057 2.727.164 4.016.262 1.529-.01 3.042.133 4.595.126 1.361.467 2.64.891 3.934.632 1.932.708 2.364 2.296 3.688 2.033 1.694 6.154.17 8.149-.726 1.69-.758 2.37-1.178 3.56-2.566.921-1.075 2.189-1.949 3.05-3.024 1.855-2.318 3.796-4.382 5.5-6.8.758-1.076 1.213-2.37 1.98-3.45.885-1.247 2.037-2.13 2.483-3.619.864-2.882 2.99-4.866 3.859-7.764.36-1.199 1.318-2.313 1.887-3.45.639-1.278.9-2.745 1.494-4.066.602-1.34 1.052-2.703 1.62-4.05.253-.602.722-1.174.9-1.8.184-.65-.059-1.473.247-2.084 1.357-2.715 1.103-6.167.511-9.128-.632-3.162 3.848-4.67 6.102-4.827 3.233-.225 4.231 3.282 5.709 5.376.813 1.152 1.73 2.177 2.663 3.236.627.713 3.523.777 4.387.827 5.348.309 12.629-3.95 14.799 3.283.782 2.604-2.046 5.76-3.515 7.631-1.899 2.421-3.776 4.701-5.038 7.503-1.258 2.795-2.543 5.215-3.149 8.244-.267 1.334-.873 2.602-1.118 3.938-.259 1.415.035 2.915-.32 4.294-1.354 5.266 1.491 13.09 7.401 14.075 6.074 1.013 11.403.221 16.498-3.37 5.038-3.551 7.779-8.761 11.024-13.781.668-1.035 1.332-2.072 2.042-3.079.375-.532 1.146-1.263 1.333-1.889.192-.642-.141-1.441.002-2.1.559-2.567 2.42-5.3 3.408-7.771 2.153-5.383 6.13-10.733 10.841-14.168 4.881-3.56 10.61-5.296 16.466-6.381 2.555-.474 5.746-.647 8.292.005 3.446.883 5.596-.236 5.207-4.117-.141-1.404.342-2.539.47-3.922.128-1.389-.107-2.731.054-4.105.353-3.016.412-6.117.96-9.089 1.081-5.854 3.218-11.903 7.205-16.471 4.085-4.679 9.554-6.301 15.474-7.08 6.034-.795 10.623 3.336 12.039 8.847.741 2.887.694 6.131 1.107 9.114.134.968-.863 2.801-1.194 3.696-.492 1.334-.36 2.817-.593 4.194-.211 1.245-.248 2.863-.54 4.05-.171.695-.844 1.272-1.08 1.95-.247.708-.11 1.559-.426 2.244-1.295 2.807-2.378 5.689-3.449 8.588-1.066 2.888-2.934 5.209-3.991 8.072-.999 2.706-2.486 5.328-3.816 7.892-1.438 2.77-3.308 5.111-4.607 7.928-1.165 2.523-3.586 4.398-4.118 7.354-.932 5.181-.335 12.559 1.635 17.486.496 1.241 1.226 2.35 1.953 3.461.992 1.515 2.523 1.602 4.13 1.853 2.944.46 5.251-.818 7.579-2.405 4.867-3.317 8.141-8.197 11.299-13.083 1.533-2.37 3.741-4.724 3.982-7.541.234-2.734 1.333-5.786 2.557-8.232.636-1.272.87-2.404 1.707-3.601.928-1.326 1.976-2.573 2.974-3.848 1.75-2.236 3.64-4.424 6.067-5.965 3-1.905 5.712-3.108 9.046-4.363 2.832-1.065 5.434-1.089 8.429-1.228 6.024-.279 12.109.043 17.13 3.847 5.153 3.904 6.904 8.908 5.774 15.191-.943 5.243-5.308 10.309-10.04 12.735-5.379 2.759-11.193 4.438-17.284 4.03-2.967-.198-5.744-.619-8.629-1.367-1.402-.363-2.605-.642-4.049-.775-1.973-.183-2.003 1.002-1.491 2.708.43 1.434.146 2.578.807 4.011.629 1.364 1.51 2.582 2.146 3.961 1.16 2.512 4.257 4.025 6.397 5.585 2.148 1.565 6.685 1.516 9.211 1.771 2.816.285 5.751.017 8.557-.343 5.701-.73 11.598-3.51 16.13-6.868 4.946-3.664 7.802-8.513 11.609-13.199 1.132-1.393 1.783-1.725 1.937-3.521.129-1.505.34-2.909.405-4.429.124-2.896.495-5.551.783-8.434.299-2.986.796-5.928.496-8.929-.089-.89.746-2.703 1.37-3.365 1.439-1.525 1.874-1.931 4.011-2.072 2.933-.195 5.76.604 5.76 3.983 0 1.544.346 3.521-.04 5.021-.406 1.581-.723 3.018-.32 4.646 2.354-1.963 3.907-4.457 6.24-6.4a34.506 34.506 0 0 1 6.41-4.254c2.335-1.205 5.289-2.854 7.973-3.025 1.576-.101 3.127-.12 4.707-.12 1.255 0 2.761-.405 3.968-.117 3.094.737 5.669 1.701 8.391 3.351.79.479 1.772 2.31 2.488 3.039.915.933.981 2.978 1.194 4.222.486 2.838.321 5.733-.244 8.555-.247 1.232-.027 2.606-.364 3.777-.448 1.555-.951 3.03-1.093 4.64-.143 1.603-.292 2.968-.752 4.499-.171.571.193 1.496.293 2.078.1.584-.317 1.396-.473 1.961-.346 1.25-.314 2.754-.553 4.05-.194 1.054.821 2.762.873 3.895.058 1.25-.45 2.982.66 4.011 1.54 1.426 2.379 1.562 4.455 1.969 2.467.484 5.944-.738 7.665-2.529 2.061-2.146 4.329-4.08 6.287-6.322 1.801-2.063 3.126-4.625 4.693-6.878 1.528-2.196 2.556-5.245 5.06-6.529 1.462-.75 2.172-.982 3.7.008 1.644 1.059 1.684 1.615 2.221 3.517z"/><path fill="#FDDFC6" d="M560.826 324.266l-1.704 4.313a5.517 5.517 0 0 1-7.302 3.059l-15.338-6.507c-2.87-1.219-2.687-2.528.408-2.911l20.392-2.529c3.094-.385 4.688 1.674 3.544 4.575zm-207.859 2.348l23.849 17.295c2.524 1.829 3.303 1.124 1.73-1.567l-9.711-16.625c-1.573-2.691-5.387-4.541-8.475-4.109l-6.369.893c-3.087.432-3.548 2.283-1.024 4.113zm111.981 28.067l-10.152-.19c-3.117-.059-6.245 2.379-6.952 5.416l-4.741 20.396c-.707 3.037.45 3.652 2.572 1.366l21.085-22.725c2.12-2.288 1.304-4.205-1.812-4.263zM286.09 298.856l-18.853-23.804c-1.937-2.445-2.775-2.004-1.865.978l10.14 33.229c.91 2.981 3.537 3.701 5.838 1.596l4.077-3.729c2.301-2.104 2.599-5.824.663-8.27zm38.667-62.867c-2.405-1.983-4.352-1.056-4.325 2.062l.251 30.027c.026 3.117 1.409 3.512 3.074.875l10.999-17.425c1.665-2.637 1.059-6.417-1.347-8.4l-8.652-7.139zm-18.486-54.116c2.344 2.057 3.215 1.412 1.937-1.432l-7.874-17.514c-1.277-2.845-4.817-4.633-7.865-3.974l-4.334.938c-3.048.659-3.624 2.881-1.28 4.938l19.416 17.044zm98.033-26.227l-25.92-12.772c-2.797-1.378-5.609-.009-6.25 3.043l-.385 1.836c-.641 3.052 1.367 5.864 4.461 6.251l27.554 3.443c3.094.389 3.337-.423.54-1.801zm64.105 56.905l23.786-12.92c2.74-1.49 4.076-5.094 2.97-8.008l-2.949-7.771c-1.105-2.915-3.516-3.24-5.353-.721l-20.095 27.546c-1.838 2.519-1.101 3.361 1.641 1.874zm22.819 63.181c-.275-3.105-2.656-4.279-5.288-2.608l-4.027 2.555c-2.632 1.671-3.43 5.199-1.772 7.841l10.711 17.07c1.657 2.642 2.788 2.261 2.512-.845l-2.136-24.013zm-87.285 22.328l9.329 3.683c2.9 1.145 4.518-.355 3.594-3.334l-9.695-31.271c-.923-2.979-2.177-2.913-2.786.145l-4.608 23.137c-.61 3.056 1.265 6.494 4.166 7.64zm-26.299-79.737c.563 3.067 1.887 3.176 2.94.241l6.17-17.166c1.054-2.934-.452-6.282-3.347-7.44l-5.783-2.313c-2.895-1.158-4.803.402-4.24 3.471l4.26 23.207zm198.897-20.619c2.284 2.124 3.263 1.47 2.176-1.452l-8.109-21.807c-1.088-2.923-4.464-4.749-7.505-4.057l-7.276 1.654c-3.041.69-3.661 2.992-1.377 5.117l22.091 20.545zM434.939 89.267l11.974-26.344c1.291-2.839.144-6.447-2.551-8.018l-5.205-3.037c-2.694-1.571-4.991-.308-5.105 2.809L432.8 88.764c-.113 3.115.849 3.342 2.139.503zm-36.698 8.715c1.248 2.858 2.07 2.652 1.828-.456l-1.618-20.779c-.242-3.109-2.876-6.414-5.853-7.343l-2.511-.785c-2.977-.93-4.391.646-3.143 3.505l11.297 25.858zm150.2 161.495c2.001 2.392 4.726 2.04 6.054-.78l2.047-4.345c1.328-2.819-.063-5.729-3.093-6.465l-12.943-3.141c-3.029-.734-3.872.62-1.871 3.012l9.806 11.719z"/><path fill="#D30741" d="M422.153 102.147c1.033 4.561 4.728 8.603 8.21 8.981 3.482.378 7.948-2.78 9.923-7.02l17.319-37.166c1.976-4.24.768-10.292-2.683-13.449l-13.33-12.195c-3.451-3.157-9.447-3.601-13.325-.986l-10.399 7.011c-3.878 2.615-6.206 8.486-5.174 13.048l9.459 41.776zM432.8 88.764l1.251-34.087c.114-3.116 2.411-4.38 5.105-2.809l5.205 3.037c2.694 1.57 3.842 5.179 2.551 8.018l-11.974 26.344c-1.289 2.839-2.251 2.612-2.138-.503zm22.752 14.775l7.827-33.273c1.07-4.553 5.765-8.537 10.431-8.854l4.981-.337c4.666-.317 10.219 1.716 12.338 4.517s1.783 8.312-.746 12.245l-19.555 30.407c-2.529 3.933-7.439 6.346-10.911 5.361s-5.436-5.512-4.365-10.066zm-61.459 9.495c2.384 4.023 7.122 6.199 10.528 4.838 3.407-1.363 5.774-6.281 5.261-10.93l-3.363-30.444c-.514-4.649-4.486-9.875-8.829-11.612l-10.362-4.144c-4.343-1.737-10.373-.434-13.401 2.897-3.029 3.331-3.556 9.349-1.172 13.373l21.338 36.022zm-4.006-44.415l2.511.785c2.977.929 5.61 4.233 5.853 7.343l1.618 20.779c.242 3.108-.58 3.314-1.828.456l-11.296-25.858c-1.248-2.858.166-4.435 3.142-3.505zm102.552 54.976l24.314 8.006c4.441 1.462 7.086 5.729 5.874 9.485-1.211 3.754-6.029 6.826-10.706 6.826h-25.39c-4.676 0-10.256-3.401-12.397-7.559l-1.57-3.051c-2.142-4.158-.557-9.432 3.521-11.722l.86-.482c4.079-2.289 11.052-2.965 15.494-1.503zm44.297 56.288c-.27 4.004 2.593 9.549 6.358 12.32l30.121 22.177c3.768 2.773 9.063 3.145 11.771.827 2.707-2.318 3.551-7.787 1.872-12.154l-13.65-35.531c-1.679-4.365-6.609-6.531-10.96-4.812l-17.116 6.767c-4.349 1.719-8.127 6.402-8.396 10.406zm18.89-7.84l7.276-1.654c3.041-.692 6.417 1.134 7.505 4.057l8.109 21.807c1.087 2.922.108 3.576-2.176 1.452l-22.092-20.544c-2.283-2.126-1.663-4.428 1.378-5.118zm-101.991 9.961l-11.433 30.853c-1.626 4.386.182 10.166 4.016 12.845l3.401 2.374c3.834 2.679 10.225 2.854 14.2.391l36.197-22.427c3.976-2.463 5.924-8.076 4.329-12.473l-5.486-15.121c-1.596-4.396-6.711-7.648-11.369-7.225l-22.431 2.04c-4.657.423-9.798 4.358-11.424 8.743zm12.933 28.673l20.095-27.546c1.837-2.52 4.247-2.194 5.353.721l2.949 7.771c1.106 2.914-.229 6.518-2.97 8.008l-23.786 12.92c-2.742 1.487-3.479.645-1.641-1.874zm-70.012-74.997c-3.848-2.66-10.711-3.925-15.254-2.81l-8.698 2.133c-4.543 1.114-8.525 5.843-8.851 10.509l-.244 3.492c-.325 4.666 3.195 9.029 7.825 9.699l39.171 5.656c4.63.669 9.786-1.085 11.46-3.898 1.673-2.813-.106-7.291-3.953-9.95l-21.456-14.831zm7.008 21.767l-27.554-3.443c-3.094-.387-5.102-3.199-4.461-6.251l.385-1.836c.641-3.052 3.453-4.421 6.25-3.043l25.92 12.772c2.797 1.378 2.554 2.19-.54 1.801zm-126.527 23.866l26.782 14.354c4.122 2.209 9.653 2.175 12.291-.077 2.637-2.251 3.19-7.567 1.228-11.813l-12.607-27.282c-1.962-4.245-7.142-6.354-11.511-4.685l-12.233 4.672c-4.369 1.67-8.683 6.79-9.586 11.38l-.216 1.091c-.904 4.587 1.73 10.151 5.852 12.36zm10.897-21.421l4.334-.938c3.048-.659 6.588 1.129 7.865 3.974l7.874 17.514c1.278 2.844.407 3.488-1.937 1.432l-19.417-17.044c-2.343-2.058-1.767-4.279 1.281-4.938zm90.568 76.758c2.501.154 5.698-3.37 7.104-7.832l9.556-30.328c1.405-4.462-1.094-9.264-5.554-10.673l-14.003-4.423c-4.46-1.408-10.742.217-13.961 3.61l-.06.064c-3.219 3.394-4.362 9.694-2.542 14.004l11.602 27.462c1.82 4.311 5.356 7.962 7.858 8.116zm-1.077-45.005l5.783 2.313c2.895 1.158 4.4 4.507 3.347 7.44l-6.17 17.166c-1.054 2.935-2.378 2.826-2.94-.241l-4.26-23.208c-.563-3.068 1.345-4.629 4.24-3.47zm-35.251 45.6l-15.861-8.54c-4.118-2.218-10.843-2.506-14.943-.643-4.1 1.864-7.192 7.207-6.871 11.874l2.561 37.247c.321 4.666 3.71 9.4 7.53 10.52 3.82 1.118 8.867-1.275 11.216-5.321l19.588-33.751a8.207 8.207 0 0 0-3.22-11.386zm-7.618 14.283l-10.999 17.425c-1.665 2.637-3.048 2.242-3.074-.875l-.251-30.027c-.026-3.117 1.92-4.045 4.325-2.062l8.652 7.139c2.406 1.983 3.012 5.764 1.347 8.4zm-40.412 64.234c4.033-2.368 5.085-7.4 2.335-11.186l-28.953-39.847c-2.75-3.784-8.139-5.731-11.977-4.326-3.838 1.403-6.298 6.318-5.466 10.92l6.298 34.854c.832 4.603 4.837 10.264 8.899 12.581l4.664 2.659c4.063 2.316 10.687 2.275 14.721-.094l9.479-5.561zm-18.832-6.502l-10.14-33.229c-.91-2.981-.071-3.423 1.865-.978l18.853 23.804c1.936 2.445 1.638 6.166-.663 8.271l-4.077 3.729c-2.301 2.104-4.928 1.384-5.838-1.597zm73.964 60.686c.405 4.659-2.869 7.192-7.278 5.63l-22.786-8.081c-4.409-1.563-6.776-4.576-5.263-6.695s6.568-3.556 11.23-3.19l14.704 1.149c4.663.365 8.81 4.476 9.215 9.135l.178 2.052zm-9.558-26.512l34.363 15.896c4.245 1.964 10.235 2.583 13.313 1.377 3.077-1.208 3.762-5.555 1.521-9.661l-15.548-28.506c-2.24-4.106-7.866-6.96-12.502-6.342l-9.467 1.262c-4.636.619-10.183 4.525-12.326 8.683l-3.176 6.163a8.1 8.1 0 0 0 3.822 11.128zm14.074-20.934l6.369-.893c3.088-.432 6.901 1.418 8.475 4.109l9.711 16.625c1.572 2.691.794 3.396-1.73 1.567l-23.849-17.295c-2.525-1.829-2.064-3.68 1.024-4.113zm125.963 36.851c-.362-4.663-4.407-9.249-8.987-10.192l-16.794-3.456c-4.58-.943-9.375 1.967-10.652 6.465l-11.34 39.903c-1.277 4.5.222 9.342 3.333 10.762 3.111 1.421 8.625.169 12.255-2.781l26.65-21.676c3.629-2.95 6.301-9.18 5.938-13.842l-.403-5.183zm-13.196-.408l-21.085 22.725c-2.122 2.286-3.279 1.671-2.572-1.366l4.741-20.396c.707-3.037 3.835-5.475 6.952-5.416l10.152.19c3.117.059 3.933 1.976 1.812 4.263zm111.293-38.673c-2.132-4.163-7.665-7.041-12.298-6.395l-33.231 4.633c-4.632.646-9.181 4.153-10.108 7.795s1.679 8.445 5.791 10.673l28.143 15.25c4.112 2.228 10.016 1.188 13.118-2.312l9.422-10.627c3.103-3.5 3.897-9.771 1.768-13.933l-2.605-5.084zm-17.226 3.996l-1.704 4.313a5.517 5.517 0 0 1-7.302 3.059l-15.338-6.507c-2.87-1.219-2.687-2.528.408-2.911l20.392-2.529c3.094-.385 4.688 1.674 3.544 4.575zm-61.917-6.912c3.406-.454 6.876-4.592 7.711-9.194l5.5-30.339c.835-4.603-2.248-9.057-6.849-9.896l-11.9-2.176c-4.601-.84-11.15 1.097-14.555 4.305l-1.938 1.826c-3.404 3.208-4.358 9.194-2.124 13.302l13.895 25.53c2.235 4.106 6.852 7.096 10.26 6.642zm-8.058-16.764l-10.711-17.07c-1.657-2.642-.859-6.17 1.772-7.841l4.027-2.555c2.632-1.671 5.013-.497 5.288 2.608l2.135 24.013c.277 3.106-.854 3.486-2.511.845zm46.32-32.921c2.559 3.915 8.059 6.438 12.222 5.605 4.164-.833 9.104-5.02 10.979-9.305l4.746-10.85c1.875-4.284-.177-9.128-4.559-10.765l-27.564-10.291c-4.381-1.636-9.205-.373-10.719 2.805-1.514 3.18-.66 8.984 1.898 12.899l12.997 19.902zm3.334-22.923l12.943 3.141c3.029.735 4.421 3.646 3.093 6.465l-2.047 4.345c-1.328 2.82-4.053 3.172-6.054.78l-9.807-11.719c-2-2.392-1.157-3.746 1.872-3.012zm58.836 11.597l-.156 21.812c-.033 4.677-3.06 6.127-6.724 3.221l-9.247-7.329c-3.665-2.907-3.842-7.868-.392-11.026l10.306-9.437c3.451-3.16 6.246-1.918 6.213 2.759zm-186.082 56.209c4.54 1.123 11.288-.29 14.995-3.143l.464-.356c3.707-2.853 5.473-8.796 3.922-13.208l-12.956-36.874c-1.551-4.412-6.359-7.219-10.686-6.234-4.326.983-9.092 5.413-10.59 9.845l-11.716 34.66c-1.498 4.432.991 8.978 5.531 10.101l21.036 5.209zm-13.483-22.134l4.608-23.137c.609-3.058 1.863-3.123 2.786-.145l9.695 31.271c.924 2.979-.693 4.479-3.594 3.334l-9.329-3.683c-2.9-1.144-4.775-4.582-4.166-7.64zm-145.659-39.544l12.879-64.851a2.478 2.478 0 0 1 2.916-1.949 2.479 2.479 0 0 1 1.949 2.916l-12.878 64.851a2.48 2.48 0 1 1-4.866-.967zm59.715-30.226l-2.615-17.672a2.48 2.48 0 0 1 2.091-2.816 2.475 2.475 0 0 1 2.816 2.09l2.615 17.674a2.478 2.478 0 0 1-2.456 2.842 2.48 2.48 0 0 1-2.451-2.118zm36.376-23.427c-.054 0-.108-.001-.163-.005l-24.399-1.591a2.48 2.48 0 0 1-2.314-2.635 2.493 2.493 0 0 1 2.637-2.314l24.399 1.59a2.48 2.48 0 0 1-.16 4.955zm59.001-25.367l-10.841 13.379a2.478 2.478 0 1 1-3.854-3.122l10.84-13.379a2.48 2.48 0 0 1 3.855 3.122zm-45.573-13.668a2.48 2.48 0 0 1-.795 3.416l-37.962 23.632a2.468 2.468 0 0 1-1.309.374 2.48 2.48 0 0 1-1.313-4.586l37.962-23.631a2.481 2.481 0 0 1 3.417.795zm-57.683-7.682a2.48 2.48 0 0 1 1.186-3.301l76.711-36.162a2.479 2.479 0 1 1 2.115 4.486l-76.711 36.165a2.484 2.484 0 0 1-3.301-1.188zm123.634-32.826l-6.428 26.654a2.483 2.483 0 0 1-2.993 1.83 2.48 2.48 0 0 1-1.83-2.993l6.428-26.654a2.482 2.482 0 0 1 4.823 1.163zm38.558 11.934a2.482 2.482 0 0 1-3.305 1.174l-27.063-12.869a2.48 2.48 0 0 1 2.132-4.481l27.062 12.869a2.484 2.484 0 0 1 1.174 3.307zm18.362 35.787l-3.84-9.736a2.481 2.481 0 0 1 4.614-1.822l3.84 9.738a2.479 2.479 0 0 1-2.305 3.392 2.48 2.48 0 0 1-2.309-1.572zm-57.086-4.387l20.476 12.273a2.481 2.481 0 0 1-2.549 4.255l-20.477-12.273c-1.175-.705-1.557-2.229-.853-3.403s2.23-1.556 3.403-.852zm-10.394 88.997a2.483 2.483 0 0 1 .243-3.5l20.136-17.521a2.48 2.48 0 0 1 3.257 3.742l-20.136 17.522a2.479 2.479 0 0 1-3.5-.243zm-24.204 2.481l-10.462-10.445a2.48 2.48 0 1 1 3.505-3.511l10.462 10.445a2.482 2.482 0 0 1-1.753 4.237 2.468 2.468 0 0 1-1.752-.726zm-8.614 54.74a2.48 2.48 0 0 1-.361 3.488l-8.369 6.8a2.475 2.475 0 0 1-3.49-.361 2.482 2.482 0 0 1 .361-3.489l8.369-6.799a2.48 2.48 0 0 1 3.49.361zm-84.695 5.27a2.481 2.481 0 0 1 3.48-.432l22.491 17.521a2.481 2.481 0 0 1-3.047 3.914l-22.491-17.522a2.48 2.48 0 0 1-.433-3.481zm92.876 43.769a2.48 2.48 0 0 1 2.05-2.847l40.149-6.538a2.48 2.48 0 0 1 .797 4.896l-40.149 6.537a2.481 2.481 0 0 1-2.847-2.048zm97.387-36.618a2.481 2.481 0 0 1 .938 3.38l-12.908 22.813a2.48 2.48 0 1 1-4.318-2.443l12.908-22.813a2.482 2.482 0 0 1 3.38-.937zm15.647-3.123a2.479 2.479 0 0 1 3.399-.866l7.306 4.338a2.48 2.48 0 1 1-2.534 4.265l-7.306-4.339a2.48 2.48 0 0 1-.865-3.398zm43.218 37.855a2.48 2.48 0 0 1-1.678 3.081l-60.92 17.959a2.481 2.481 0 0 1-1.403-4.758l60.921-17.959a2.483 2.483 0 0 1 3.08 1.677zm-1.09-73.307a2.482 2.482 0 0 1 4.413-2.269l14.287 27.807a2.48 2.48 0 1 1-4.413 2.267l-14.287-27.805zm40.834-60.047l7.061 22.961a2.48 2.48 0 0 1-4.742 1.458l-7.061-22.962a2.48 2.48 0 0 1 1.642-3.099 2.483 2.483 0 0 1 3.1 1.642zm-13.505 3.791l-8.367 13.532a2.477 2.477 0 0 1-3.413.804 2.48 2.48 0 0 1-.806-3.414l8.367-13.531a2.482 2.482 0 0 1 3.413-.805 2.478 2.478 0 0 1 .806 3.414zm-66.682-30.998a2.48 2.48 0 0 1 1.746-3.042l20-5.417a2.48 2.48 0 1 1 1.296 4.787l-20 5.418a2.482 2.482 0 0 1-3.042-1.746zm15.953-50.317a2.48 2.48 0 0 1 3.355-1.022l25.479 13.564a2.481 2.481 0 1 1-2.332 4.377l-25.479-13.563a2.48 2.48 0 0 1-1.023-3.356zM329.419 283.128a2.473 2.473 0 0 1 3.055-1.724l49.908 13.896a2.48 2.48 0 1 1-1.33 4.777l-49.909-13.896a2.479 2.479 0 0 1-1.724-3.053zm-28.524-47.006a2.48 2.48 0 0 1-.511 3.47l-27.863 20.719a2.475 2.475 0 0 1-3.47-.511 2.48 2.48 0 0 1 .51-3.469l27.863-20.72a2.48 2.48 0 0 1 3.471.511zm219.611 14.928l-7.198 12.923a2.479 2.479 0 0 1-3.374.959 2.48 2.48 0 0 1-.959-3.374l7.198-12.922a2.48 2.48 0 1 1 4.333 2.414zm.059-24.517a2.465 2.465 0 0 1-1.304.371c-.83 0-1.642-.416-2.111-1.176l-10.832-17.5a2.48 2.48 0 1 1 4.218-2.609l10.832 17.5a2.48 2.48 0 0 1-.803 3.414zm-74.26 112.682l-15.952-23.537a2.48 2.48 0 1 1 4.106-2.783l15.952 23.537a2.48 2.48 0 1 1-4.106 2.783zm22.323-54.391l-26.152 14.123a2.482 2.482 0 0 1-3.362-1.005 2.48 2.48 0 0 1 1.004-3.36l26.152-14.123a2.48 2.48 0 0 1 3.361 1.005 2.476 2.476 0 0 1-1.003 3.36zm12.928-22.233l-21.895-24.429a2.48 2.48 0 0 1 3.694-3.311l21.895 24.429a2.48 2.48 0 1 1-3.694 3.311zm-170.428 91.403c.974.965.981 2.534.018 3.509a2.474 2.474 0 0 1-1.763.734 2.472 2.472 0 0 1-1.745-.718L280.02 330.17a2.482 2.482 0 0 1-.019-3.508 2.482 2.482 0 0 1 3.508-.018l27.619 27.35zm116.843 39.387a2.483 2.483 0 0 1-3.035 1.761l-69.479-18.447a2.482 2.482 0 0 1-1.761-3.033 2.49 2.49 0 0 1 3.034-1.762l69.479 18.447a2.48 2.48 0 0 1 1.762 3.034zm168.7-102.177l-7.928 26.938a2.479 2.479 0 1 1-4.758-1.402l7.927-26.938a2.481 2.481 0 0 1 4.759 1.402zM350.38 241.66a2.482 2.482 0 0 1 1.642-3.101l15.266-4.697a2.485 2.485 0 0 1 3.101 1.641 2.482 2.482 0 0 1-1.642 3.101l-15.267 4.697a2.48 2.48 0 0 1-3.1-1.641zm49.856-45.857a2.482 2.482 0 0 1 3.319-1.136l32.09 15.731a2.48 2.48 0 1 1-2.183 4.453l-32.09-15.73a2.48 2.48 0 0 1-1.136-3.318z"/></svg>